<svg width="24" height="24" viewBox="0 0 24 24" fill="none" xmlns="http://www.w3.org/2000/svg">
<path d="M11.264 2.20497C10.3503 1.90012 9.35739 1.93517 8.46751 2.30369C7.57764 2.67221 6.85061 3.34944 6.41999 4.21097L2.41999 12.211C1.98401 13.083 1.88152 14.0842 2.13177 15.0265C2.38202 15.9688 2.96779 16.7872 3.77899 17.328L9.77899 21.328C10.4361 21.7661 11.2082 21.9999 11.998 21.9999C12.7878 21.9999 13.5599 21.7661 14.217 21.328L20.217 17.328C20.9469 16.8413 21.4965 16.1282 21.7813 15.2984C22.0661 14.4687 22.0702 13.5683 21.793 12.736L19.793 6.73597C19.5966 6.14681 19.2658 5.61146 18.8266 5.17232C18.3875 4.73319 17.8522 4.40234 17.263 4.20597L11.264 2.20497Z" stroke="black" stroke-width="2" stroke-linecap="round" stroke-linejoin="round"/>
<path d="M11.99 22L14 12L21.822 15.184" stroke="black" stroke-width="2" stroke-linecap="round" stroke-linejoin="round"/>
<path d="M14 12L8.47 2.302" stroke="black" stroke-width="2" stroke-linecap="round" stroke-linejoin="round"/>
</svg>
